#!OML:ASF I:\Actors\actors\Patient Classification 1\Patient 1\Session 1\Subject1.ASF
:FULLY-SPECIFIED
:DEGREES
983
root -0.573142 17.5419 8.39374 10.463 -2.10173 -6.70497
lowerback 1.30154 0.658899 7.3817
upperback -12.3918 1.67418 1.12987
thorax -14.2049 0.0330836 -3.07496
lowerneck -13.0888 -3.45377 -2.19581
upperneck 19.4399 -5.771 6.63226
head 8.47179 -2.23403 1.93938
rclavicle -1.71949e-014 1.21259e-014
rhumerus -80.1611 -31.8313 -19.6808
rradius 20.3571
rwrist 54.0006
rhand -1.78966 -42.4034
rfingers 7.12502
rthumb 23.8751 289.061
lclavicle -1.71949e-014 1.21259e-014
lhumerus -80.2354 34.9605 14.2392
lradius 17.048
lwrist -41.4281
lhand -20.2525 4.42457
lfingers 7.12502
lthumb 6.09601 34.3169
rfemur -1.54501 29.325 23.2025
rtibia -0.832854
rfoot -12.2995 -29.8499
rtoes 5.93651
lfemur 8.43419 -50.9137 -17.0233
ltibia -5.38662
lfoot -27.328 58.7555
ltoes 16.1715
984
root -0.576526 17.541 8.3784 10.5142 -2.11347 -6.69695
lowerback 1.27303 0.650423 7.31699
upperback -12.4315 1.65337 1.10533
thorax -14.2368 0.0265816 -3.06303
lowerneck -12.9223 -3.43502 -2.20448
upperneck 19.6746 -5.78845 6.75343
head 8.52572 -2.22931 1.98304
rclavicle 1.00386e-014 -1.68967e-014
rhumerus -78.0541 -32.2097 -23.1279
rradius 20.5915
rwrist 52.0185
rhand -1.18879 -41.3066
rfingers 7.12502
rthumb 24.4512 290.234
lclavicle 1.00386e-014 -1.68967e-014
lhumerus -78.9469 35.6286 16.2238
lradius 17.1505
lwrist -40.016
lhand -20.0937 4.40868
lfingers 7.12502
lthumb 6.24931 34.2965
rfemur -1.69818 29.2735 23.1311
rtibia -0.802946
rfoot -12.2779 -29.7923
rtoes 5.86218
lfemur 8.31386 -50.9951 -16.9238
ltibia -5.37497
lfoot -27.5715 58.7455
ltoes 16.4962
985
root -0.579344 17.5404 8.36324 10.5459 -2.10886 -6.675
lowerback 1.22259 0.653002 7.25184
upperback -12.4531 1.64427 1.07733
thorax -14.231 0.0273788 -3.05589
lowerneck -12.787 -3.42501 -2.35252
upperneck 19.873 -5.81923 7.02783
head 8.58289 -2.22582 2.09974
rclavicle 2.43511e-015 -2.68359e-014
rhumerus -75.6098 -32.406 -27.1567
rradius 20.9832
rwrist 49.8365
rhand -0.678332 -40.2085
rfingers 7.12502
rthumb 24.9405 291.399
lclavicle 2.43511e-015 -2.68359e-014
lhumerus -77.1322 36.2232 19.0262
lradius 17.2787
lwrist -38.5571
lhand -19.8571 3.67411
lfingers 7.12502
lthumb 6.47776 33.5551
rfemur -1.79795 29.2146 23.0678
rtibia -0.795161
rfoot -12.2962 -29.7327
rtoes 5.88318
lfemur 8.21064 -51.1296 -16.8678
ltibia -5.34404
lfoot -27.9262 58.7735
ltoes 16.8964
986
root -0.582107 17.5406 8.34788 10.5135 -2.10919 -6.74418
lowerback 1.2086 0.659841 7.27563
upperback -12.4279 1.65223 1.0715
thorax -14.1899 0.0300882 -3.07637
lowerneck -12.7697 -3.45139 -2.36988
upperneck 20.1373 -5.87988 7.05756
head 8.67412 -2.24719 2.1075
rclavicle -3.08116e-015 -2.34566e-014
rhumerus -73.0524 -32.5841 -31.2503
rradius 21.4642
rwrist 48.0435
rhand 0.0607742 -39.1912
rfingers 7.12502
rthumb 25.6486 292.516
lclavicle -3.08116e-015 -2.34566e-014
lhumerus -74.7754 36.6733 22.682
lradius 17.5098
lwrist -37.0753
lhand -19.6986 2.67371
lfingers 7.12502
lthumb 6.63083 32.5499
rfemur -1.81231 29.1302 23.1444
rtibia -0.800429
rfoot -12.3015 -29.6329
rtoes 6.07735
lfemur 8.30255 -51.395 -16.8561
ltibia -5.35628
lfoot -28.3365 58.9448
ltoes 17.2704
987
root -0.585256 17.5413 8.33082 10.4825 -2.09602 -6.8594
lowerback 1.20578 0.657141 7.31932
upperback -12.3978 1.65228 1.08845
thorax -14.1519 0.0285132 -3.08178
lowerneck -12.7767 -3.49319 -2.37901
upperneck 20.443 -5.94823 7.00347
head 8.78155 -2.27865 2.08447
rclavicle 2.5842e-015 -6.95746e-015
rhumerus -70.2954 -32.653 -35.4158
rradius 21.9264
rwrist 46.406
rhand 0.626751 -38.4466
rfingers 7.12502
rthumb 26.1906 293.34
lclavicle 2.5842e-015 -6.95746e-015
lhumerus -71.7682 36.7208 27.416
lradius 17.9371
lwrist -35.0098
lhand -19.6455 1.57857
lfingers 7.12502
lthumb 6.68203 31.4531
rfemur -1.84001 29.106 23.2753
rtibia -0.79749
rfoot -12.2516 -29.6016
rtoes 6.21281
lfemur 8.38419 -51.5884 -16.7564
ltibia -5.42779
lfoot -28.3945 59.1564
ltoes 17.2736
988
root -0.588487 17.5424 8.31077 10.4998 -2.08705 -6.91672
lowerback 1.20031 0.656076 7.27833
upperback -12.4192 1.64834 1.09203
thorax -14.175 0.0303725 -3.05445
lowerneck -12.6082 -3.51771 -2.50978
upperneck 20.6534 -6.00977 7.16856
head 8.8349 -2.30011 2.15901
rclavicle 9.29318e-015 -4.96962e-015
rhumerus -67.3927 -32.4755 -39.6624
rradius 22.349
rwrist 44.7632
rhand 0.793567 -37.8911
rfingers 7.12502
rthumb 26.3503 293.92
lclavicle 9.29318e-015 -4.96962e-015
lhumerus -68.3308 36.2396 32.8451
lradius 18.5492
lwrist -32.4634
lhand -19.624 0.36009
lfingers 7.12502
lthumb 6.70279 30.234
rfemur -1.95702 29.1186 23.301
rtibia -0.783875
rfoot -12.1518 -29.6114
rtoes 6.138
lfemur 8.26603 -51.6373 -16.5546
ltibia -5.48487
lfoot -28.3552 59.2469
ltoes 17.2584
989
root -0.592447 17.5439 8.2899 10.5011 -2.10071 -6.94527
lowerback 1.21702 0.685079 7.21247
upperback -12.4496 1.68175 1.05788
thorax -14.2178 0.0491737 -3.0605
lowerneck -12.3237 -3.5748 -2.69354
upperneck 20.7425 -6.13414 7.49093
head 8.83619 -2.34485 2.28958
rclavicle -2.55935e-014 3.83654e-014
rhumerus -64.5879 -32.251 -43.6742
rradius 22.7508
rwrist 43.602
rhand 0.747588 -37.617
rfingers 7.12502
rthumb 26.3062 294.187
lclavicle -2.55935e-014 3.83654e-014
lhumerus -64.8606 35.506 38.1806
lradius 19.2822
lwrist -30.1279
lhand -19.4718 -0.849369
lfingers 7.12502
lthumb 6.84971 29.0198
rfemur -2.05483 29.1748 23.3014
rtibia -0.776145
rfoot -12.0806 -29.6355
rtoes 5.99642
lfemur 8.12329 -51.7027 -16.3828
ltibia -5.48207
lfoot -28.4995 59.2784
ltoes 17.4671
